<svg id="visual" viewBox="0 0 900 600" width="900" height="600" xmlns="http://www.w3.org/2000/svg" xmlns:xlink="http://www.w3.org/1999/xlink" version="1.1"><g stroke-width="1" stroke-linejoin="bevel"><path d="M429 287L393 360L495 322Z" fill="#15384f" stroke="#15384f"></path><path d="M393 360L518 415L495 322Z" fill="#15384f" stroke="#15384f"></path><path d="M429 287L307 315L393 360Z" fill="#081a28" stroke="#081a28"></path><path d="M292 426L396 473L393 360Z" fill="#205a7a" stroke="#205a7a"></path><path d="M393 360L396 473L518 415Z" fill="#246688" stroke="#246688"></path><path d="M478 173L384 198L429 287Z" fill="#19435d" stroke="#19435d"></path><path d="M429 287L384 198L307 315Z" fill="#297ea6" stroke="#297ea6"></path><path d="M628 496L593 385L518 415Z" fill="#15384f" stroke="#15384f"></path><path d="M518 415L593 385L495 322Z" fill="#205a7a" stroke="#205a7a"></path><path d="M495 322L478 173L429 287Z" fill="#19435d" stroke="#19435d"></path><path d="M632 284L478 173L495 322Z" fill="#112e42" stroke="#112e42"></path><path d="M307 315L292 426L393 360Z" fill="#205a7a" stroke="#205a7a"></path><path d="M396 473L495 514L518 415Z" fill="#081a28" stroke="#081a28"></path><path d="M292 426L310 468L396 473Z" fill="#1d4e6b" stroke="#1d4e6b"></path><path d="M379 600L502 600L495 514Z" fill="#081a28" stroke="#081a28"></path><path d="M593 385L632 284L495 322Z" fill="#112e42" stroke="#112e42"></path><path d="M384 198L269 238L307 315Z" fill="#1d4e6b" stroke="#1d4e6b"></path><path d="M307 315L221 301L292 426Z" fill="#0c2435" stroke="#0c2435"></path><path d="M616 164L513 127L478 173Z" fill="#0c2435" stroke="#0c2435"></path><path d="M478 173L412 107L384 198Z" fill="#19435d" stroke="#19435d"></path><path d="M384 198L333 79L269 238Z" fill="#19435d" stroke="#19435d"></path><path d="M269 238L221 301L307 315Z" fill="#0c2435" stroke="#0c2435"></path><path d="M220 539L332 600L310 468Z" fill="#246688" stroke="#246688"></path><path d="M513 127L412 107L478 173Z" fill="#297ea6" stroke="#297ea6"></path><path d="M495 514L628 496L518 415Z" fill="#19435d" stroke="#19435d"></path><path d="M593 385L706 312L632 284Z" fill="#0c2435" stroke="#0c2435"></path><path d="M632 284L616 164L478 173Z" fill="#297ea6" stroke="#297ea6"></path><path d="M726 372L706 312L593 385Z" fill="#1d4e6b" stroke="#1d4e6b"></path><path d="M632 284L723 209L616 164Z" fill="#277297" stroke="#277297"></path><path d="M379 600L495 514L396 473Z" fill="#081a28" stroke="#081a28"></path><path d="M495 514L571 600L628 496Z" fill="#277297" stroke="#277297"></path><path d="M332 600L396 473L310 468Z" fill="#19435d" stroke="#19435d"></path><path d="M332 600L379 600L396 473Z" fill="#081a28" stroke="#081a28"></path><path d="M365 0L333 79L412 107Z" fill="#19435d" stroke="#19435d"></path><path d="M412 107L333 79L384 198Z" fill="#0c2435" stroke="#0c2435"></path><path d="M269 238L192 188L221 301Z" fill="#081a28" stroke="#081a28"></path><path d="M220 539L310 468L292 426Z" fill="#297ea6" stroke="#297ea6"></path><path d="M628 496L726 372L593 385Z" fill="#19435d" stroke="#19435d"></path><path d="M221 301L169 430L292 426Z" fill="#1d4e6b" stroke="#1d4e6b"></path><path d="M502 600L571 600L495 514Z" fill="#277297" stroke="#277297"></path><path d="M628 496L735 494L726 372Z" fill="#297ea6" stroke="#297ea6"></path><path d="M333 79L192 188L269 238Z" fill="#112e42" stroke="#112e42"></path><path d="M221 301L134 415L169 430Z" fill="#081a28" stroke="#081a28"></path><path d="M169 430L220 539L292 426Z" fill="#081a28" stroke="#081a28"></path><path d="M790 338L723 209L706 312Z" fill="#297ea6" stroke="#297ea6"></path><path d="M706 312L723 209L632 284Z" fill="#205a7a" stroke="#205a7a"></path><path d="M701 62L603 70L616 164Z" fill="#297ea6" stroke="#297ea6"></path><path d="M616 164L603 70L513 127Z" fill="#277297" stroke="#277297"></path><path d="M513 127L501 0L412 107Z" fill="#277297" stroke="#277297"></path><path d="M123 274L134 415L221 301Z" fill="#205a7a" stroke="#205a7a"></path><path d="M85 600L190 600L220 539Z" fill="#1d4e6b" stroke="#1d4e6b"></path><path d="M192 188L123 274L221 301Z" fill="#112e42" stroke="#112e42"></path><path d="M696 600L735 494L628 496Z" fill="#112e42" stroke="#112e42"></path><path d="M726 372L790 338L706 312Z" fill="#246688" stroke="#246688"></path><path d="M603 70L501 0L513 127Z" fill="#081a28" stroke="#081a28"></path><path d="M837 417L790 338L726 372Z" fill="#081a28" stroke="#081a28"></path><path d="M501 0L365 0L412 107Z" fill="#277297" stroke="#277297"></path><path d="M333 79L216 66L192 188Z" fill="#081a28" stroke="#081a28"></path><path d="M275 0L216 66L333 79Z" fill="#081a28" stroke="#081a28"></path><path d="M192 188L95 167L123 274Z" fill="#246688" stroke="#246688"></path><path d="M571 600L696 600L628 496Z" fill="#00101c" stroke="#00101c"></path><path d="M75 465L220 539L169 430Z" fill="#081a28" stroke="#081a28"></path><path d="M220 539L190 600L332 600Z" fill="#112e42" stroke="#112e42"></path><path d="M723 209L701 62L616 164Z" fill="#15384f" stroke="#15384f"></path><path d="M603 70L636 0L501 0Z" fill="#081a28" stroke="#081a28"></path><path d="M792 81L701 62L723 209Z" fill="#297ea6" stroke="#297ea6"></path><path d="M365 0L275 0L333 79Z" fill="#297ea6" stroke="#297ea6"></path><path d="M84 96L192 188L216 66Z" fill="#205a7a" stroke="#205a7a"></path><path d="M84 96L95 167L192 188Z" fill="#081a28" stroke="#081a28"></path><path d="M0 395L75 465L134 415Z" fill="#081a28" stroke="#081a28"></path><path d="M0 304L134 415L123 274Z" fill="#081a28" stroke="#081a28"></path><path d="M134 415L75 465L169 430Z" fill="#205a7a" stroke="#205a7a"></path><path d="M701 62L636 0L603 70Z" fill="#19435d" stroke="#19435d"></path><path d="M790 338L814 211L723 209Z" fill="#081a28" stroke="#081a28"></path><path d="M275 0L233 0L216 66Z" fill="#246688" stroke="#246688"></path><path d="M735 494L837 417L726 372Z" fill="#00101c" stroke="#00101c"></path><path d="M790 338L900 315L814 211Z" fill="#19435d" stroke="#19435d"></path><path d="M836 504L837 417L735 494Z" fill="#277297" stroke="#277297"></path><path d="M799 600L836 504L735 494Z" fill="#081a28" stroke="#081a28"></path><path d="M814 211L792 81L723 209Z" fill="#277297" stroke="#277297"></path><path d="M701 62L723 0L636 0Z" fill="#1d4e6b" stroke="#1d4e6b"></path><path d="M113 0L84 96L216 66Z" fill="#00101c" stroke="#00101c"></path><path d="M95 167L0 304L123 274Z" fill="#0c2435" stroke="#0c2435"></path><path d="M792 81L723 0L701 62Z" fill="#297ea6" stroke="#297ea6"></path><path d="M696 600L799 600L735 494Z" fill="#1d4e6b" stroke="#1d4e6b"></path><path d="M75 465L85 600L220 539Z" fill="#246688" stroke="#246688"></path><path d="M0 166L0 304L95 167Z" fill="#1d4e6b" stroke="#1d4e6b"></path><path d="M75 465L0 493L85 600Z" fill="#00101c" stroke="#00101c"></path><path d="M0 304L0 395L134 415Z" fill="#1d4e6b" stroke="#1d4e6b"></path><path d="M900 433L900 315L837 417Z" fill="#15384f" stroke="#15384f"></path><path d="M837 417L900 315L790 338Z" fill="#297ea6" stroke="#297ea6"></path><path d="M814 211L900 120L792 81Z" fill="#277297" stroke="#277297"></path><path d="M900 485L900 433L837 417Z" fill="#19435d" stroke="#19435d"></path><path d="M900 485L837 417L836 504Z" fill="#246688" stroke="#246688"></path><path d="M0 395L0 493L75 465Z" fill="#246688" stroke="#246688"></path><path d="M900 315L900 216L814 211Z" fill="#19435d" stroke="#19435d"></path><path d="M233 0L113 0L216 66Z" fill="#112e42" stroke="#112e42"></path><path d="M84 96L0 166L95 167Z" fill="#205a7a" stroke="#205a7a"></path><path d="M0 85L0 166L84 96Z" fill="#0c2435" stroke="#0c2435"></path><path d="M900 600L900 485L836 504Z" fill="#277297" stroke="#277297"></path><path d="M900 216L900 120L814 211Z" fill="#277297" stroke="#277297"></path><path d="M792 81L834 0L723 0Z" fill="#15384f" stroke="#15384f"></path><path d="M0 0L0 85L84 96Z" fill="#00101c" stroke="#00101c"></path><path d="M0 493L0 600L85 600Z" fill="#00101c" stroke="#00101c"></path><path d="M900 120L834 0L792 81Z" fill="#0c2435" stroke="#0c2435"></path><path d="M799 600L900 600L836 504Z" fill="#00101c" stroke="#00101c"></path><path d="M113 0L0 0L84 96Z" fill="#00101c" stroke="#00101c"></path><path d="M900 120L900 0L834 0Z" fill="#246688" stroke="#246688"></path></g></svg>